<?xml version="1.0" encoding="UTF-8"?>
<!-- Created with Grafika (https://www.grafika.cc/) -->
<svg xmlns="http://www.w3.org/2000/svg" xmlns:svg="http://www.w3.org/2000/svg" xmlns:xlink="http://www.w3.org/1999/xlink" width="2048" height="842.21" viewBox="0 0 696.67 286.51" preserveAspectRatio="xMidYMid meet">
	<g transform="matrix(1, 0, 0, 1, 575.0872802734375, 158.25344848632812)">
		<path transform="matrix(1.8376643657684326, 0, 0, 1.8376643657684326, -282.10797119140625, 10.620148658752441)" d="M-145.69,34.5 L-145.69,25.81 L-139.19,25.81 L-139.19,-26.9 L-145.69,-26.9 L-145.69,-35.5 L-121.98,-35.5 L-121.98,-26.9 L-128.48,-26.9 L-128.48,25.81 L-121.98,25.81 L-121.98,34.5 L-145.69,34.5 ZM-114.69,34.5 L-114.69,-16.99 L-107.39,-16.99 L-107.39,-14.3 L-106.19,-14.3 L-103.19,-16.99 L-92.27,-16.99 L-85.49,-10.2 L-85.49,34.5 L-95.5,34.5 L-95.5,-6.49 L-97.18,-8.2 L-102.19,-8.2 L-104.68,-6.1 L-104.68,34.5 L-114.69,34.5 ZM-78.59,34.5 L-78.59,25.81 L-65.48,25.81 L-63.89,24.2 L-63.89,14.41 L-65.68,12.6 L-72.29,12.6 L-79.08,5.79 L-79.08,-10.4 L-72.49,-16.99 L-54.98,-16.99 L-54.98,-8.3 L-67.48,-8.3 L-69.09,-6.71 L-69.09,2.1 L-67.29,3.91 L-60.69,3.91 L-53.88,10.7 L-53.88,27.91 L-60.47,34.5 L-78.59,34.5 ZM-37.68,34.5 L-43.88,28.3 L-43.88,-8.2 L-49.89,-8.2 L-49.89,-16.99 L-43.88,-16.99 L-43.88,-28.71 L-33.89,-28.71 L-33.89,-16.99 L-23.79,-16.99 L-23.79,-8.2 L-33.89,-8.2 L-33.89,24.59 L-32.99,25.49 L-23.3,25.49 L-23.3,34.5 L-37.68,34.5 ZM-13.1,34.5 L-19.69,27.91 L-19.69,6.5 L-12.68,-0.51 L-0.99,-0.51 L-0.99,-6.59 L-2.79,-8.4 L-16.2,-8.4 L-16.2,-16.99 L2.31,-16.99 L9.02,-10.3 L9.02,34.5 L1.72,34.5 L1.72,31.4 L0.62,31.4 L-2.99,34.5 L-13.1,34.5 ZM-8.19,25.91 L-3.38,25.91 L-0.99,23.81 L-0.99,7.69 L-7.8,7.69 L-9.68,9.6 L-9.68,24.39 L-8.19,25.91 ZM18.8,34.5 L18.8,-35.5 L36.21,-35.5 L42.92,11.99 L44.22,11.99 L50.91,-35.5 L68.12,-35.5 L68.12,34.5 L58.11,34.5 L58.11,-21.7 L56.52,-21.7 L49.81,25.1 L37.11,25.1 L30.52,-21.7 L28.91,-21.7 L28.91,34.5 L18.8,34.5 ZM83.9,34.5 L77.31,27.91 L77.31,6.5 L84.32,-0.51 L96.01,-0.51 L96.01,-6.59 L94.21,-8.4 L80.8,-8.4 L80.8,-16.99 L99.31,-16.99 L106.02,-10.3 L106.02,34.5 L98.72,34.5 L98.72,31.4 L97.62,31.4 L94.01,34.5 L83.9,34.5 ZM88.81,25.91 L93.62,25.91 L96.01,23.81 L96.01,7.69 L89.2,7.69 L87.32,9.6 L87.32,24.39 L88.81,25.91 ZM114.31,34.5 L114.31,-16.99 L124.32,-16.99 L124.32,34.5 L114.31,34.5 ZM114.41,-26.1 L114.41,-35.5 L124.2,-35.5 L124.2,-26.1 L114.41,-26.1 ZM133.61,34.5 L133.61,-26.9 L127.31,-26.9 L127.31,-35.5 L143.62,-35.5 L143.62,34.5 L133.61,34.5 Z" fill="#080D17" fill-rule="evenodd" />
		<rect transform="matrix(0.0000000003184333075001433, 2.9206979274749756, -2.9206979274749756, 0.0000000003184333075001433, -111.26311492919922, 10.620133399963379)" x="-37.14" y="-60.42" width="74.27" height="120.85" rx="6.85" ry="6.85" style="fill:#CAC9CD;" />
		<g transform="matrix(0.8473876714706421, -0.0034801156725734472, 0.0034801156725734472, 0.8473876714706421, -85.52942657470703, -16.555625915527344)">
			<ellipse cx="177.24" cy="-96.06" rx="64" ry="64" style="fill:#F59E0B;" />
			<path transform="matrix(1, 0, 0, 1, -254.76052856445312, -256.0559387207031)" d="M225,160 L33.8,160 C22.7,160 19.9,163 22.5,170.5 C24,174.9 30.9,178.6 35,180.7 C46,186.5 198.8,269.8 204.5,272.8 C210.2,275.8 216,277.2 225,277.2 C234,277.2 239.8,275.8 245.5,272.8 C249.29,270.8 318.13,233.3 367.06,206.69 C357.59,193.55 352,177.43 352,160 L225,160 L225,160 Z" style="fill:#F59E0B;" />
			<path transform="matrix(1, 0, 0, 1, -254.76052856445312, -256.0559387207031)" d="M293.2,273.3 L375.4,365.8 C377.4,367.8 378.3,370.2 377.2,371.4 C376,372.5 373.4,371.9 371.3,370 L272.7,286.8 C257.8,296.4 247.3,303 245.5,304 C237.8,307.9 232.4,308.4 225,308.4 C217.6,308.4 212.2,307.9 204.5,304 C202.6,303 192.2,296.4 177.3,286.8 L78.7,370 C76.7,372 74,372.6 72.8,371.4 C71.6,370.3 72.5,367.8 74.5,365.8 L156.6,273.3 C107.9,241.8 33.5,189.4 25.3,185.2 C16.5,180.7 16,186 16,190.1 L16,395.1 C16,404.4 29.7,416 39.5,416 L410.5,416 C420.3,416 432,404.3 432,395.1 L432,240 C410.27,240 390.58,231.33 376.17,217.27 C350.17,235.17 318.36,257.02 293.2,273.3 L293.2,273.3 Z" style="fill:#F59E0B;" />
		</g>
		<path transform="matrix(1.830280065536499, 0, 0, 1.830280065536499, -282.19134521484375, 10.620148658752441)" d="M-145.28,34.5 L-145.28,25.81 L-138.79,25.81 L-138.79,-26.9 L-145.28,-26.9 L-145.28,-35.5 L-121.58,-35.5 L-121.58,-26.9 L-128.07,-26.9 L-128.07,25.81 L-121.58,25.81 L-121.58,34.5 L-145.28,34.5 ZM-114.28,34.5 L-114.28,-16.99 L-106.98,-16.99 L-106.98,-14.3 L-105.79,-14.3 L-102.78,-16.99 L-91.87,-16.99 L-85.08,-10.2 L-85.08,34.5 L-95.09,34.5 L-95.09,-6.49 L-96.78,-8.2 L-101.78,-8.2 L-104.27,-6.1 L-104.27,34.5 L-114.28,34.5 ZM-78.19,34.5 L-78.19,25.81 L-65.08,25.81 L-63.49,24.2 L-63.49,14.41 L-65.27,12.6 L-71.89,12.6 L-78.67,5.79 L-78.67,-10.4 L-72.08,-16.99 L-54.58,-16.99 L-54.58,-8.3 L-67.08,-8.3 L-68.69,-6.71 L-68.69,2.1 L-66.88,3.91 L-60.29,3.91 L-53.48,10.7 L-53.48,27.91 L-60.07,34.5 L-78.19,34.5 ZM-37.27,34.5 L-43.47,28.3 L-43.47,-8.2 L-49.48,-8.2 L-49.48,-16.99 L-43.47,-16.99 L-43.47,-28.71 L-33.49,-28.71 L-33.49,-16.99 L-23.38,-16.99 L-23.38,-8.2 L-33.49,-8.2 L-33.49,24.59 L-32.59,25.49 L-22.89,25.49 L-22.89,34.5 L-37.27,34.5 ZM-12.69,34.5 L-19.28,27.91 L-19.28,6.5 L-12.28,-0.51 L-0.58,-0.51 L-0.58,-6.59 L-2.39,-8.4 L-15.79,-8.4 L-15.79,-16.99 L2.71,-16.99 L9.43,-10.3 L9.43,34.5 L2.13,34.5 L2.13,31.4 L1.03,31.4 L-2.58,34.5 L-12.69,34.5 ZM-7.78,25.91 L-2.97,25.91 L-0.58,23.81 L-0.58,7.69 L-7.39,7.69 L-9.27,9.6 L-9.27,24.39 L-7.78,25.91 ZM19.21,34.5 L19.21,-35.5 L36.61,-35.5 L43.33,11.99 L44.62,11.99 L51.31,-35.5 L68.52,-35.5 L68.52,34.5 L58.51,34.5 L58.51,-21.7 L56.93,-21.7 L50.21,25.1 L37.52,25.1 L30.93,-21.7 L29.31,-21.7 L29.31,34.5 L19.21,34.5 ZM84.31,34.5 L77.72,27.91 L77.72,6.5 L84.72,-0.51 L96.42,-0.51 L96.42,-6.59 L94.61,-8.4 L81.21,-8.4 L81.21,-16.99 L99.71,-16.99 L106.43,-10.3 L106.43,34.5 L99.13,34.5 L99.13,31.4 L98.03,31.4 L94.42,34.5 L84.31,34.5 ZM89.22,25.91 L94.03,25.91 L96.42,23.81 L96.42,7.69 L89.61,7.69 L87.73,9.6 L87.73,24.39 L89.22,25.91 ZM114.72,34.5 L114.72,-16.99 L124.73,-16.99 L124.73,34.5 L114.72,34.5 ZM114.82,-26.1 L114.82,-35.5 L124.61,-35.5 L124.61,-26.1 L114.82,-26.1 ZM134.01,34.5 L134.01,-26.9 L127.71,-26.9 L127.71,-35.5 L144.02,-35.5 L144.02,34.5 L134.01,34.5 Z" fill="#080D1700" fill-rule="evenodd" />
		<path transform="matrix(1.830280065536499, 0, 0, 1.830280065536499, -282.19134521484375, 10.620148658752441)" d="M-145.28,-36.04 C-145.58,-36.04 -145.83,-35.8 -145.83,-35.5 L-145.83,-26.9 C-145.83,-26.76 -145.77,-26.62 -145.67,-26.52 C-145.57,-26.41 -145.43,-26.36 -145.28,-26.36 L-139.34,-26.36 L-139.34,25.26 L-145.28,25.26 C-145.43,25.26 -145.57,25.32 -145.67,25.42 C-145.77,25.52 -145.83,25.66 -145.83,25.81 L-145.83,34.5 C-145.83,34.65 -145.77,34.78 -145.67,34.89 C-145.57,34.99 -145.43,35.05 -145.28,35.05 L-121.58,35.05 C-121.43,35.05 -121.29,34.99 -121.19,34.89 C-121.09,34.78 -121.03,34.65 -121.03,34.5 L-121.03,25.81 C-121.03,25.66 -121.09,25.52 -121.19,25.42 C-121.29,25.32 -121.43,25.26 -121.58,25.26 L-127.53,25.26 L-127.53,-26.36 L-121.58,-26.36 C-121.43,-26.36 -121.29,-26.41 -121.19,-26.52 C-121.09,-26.62 -121.03,-26.76 -121.03,-26.9 L-121.03,-35.5 C-121.03,-35.8 -121.28,-36.04 -121.58,-36.04 L-145.28,-36.04 ZM19.21,-36.04 C18.91,-36.04 18.66,-35.8 18.66,-35.5 L18.66,34.5 C18.66,34.65 18.72,34.78 18.82,34.89 C18.92,34.99 19.06,35.05 19.21,35.05 L29.31,35.05 C29.46,35.05 29.6,34.99 29.7,34.89 C29.8,34.78 29.86,34.65 29.86,34.5 L29.86,-21.15 L30.45,-21.15 L36.98,25.18 C37.02,25.45 37.25,25.65 37.52,25.65 L50.21,25.65 C50.48,25.65 50.72,25.45 50.75,25.18 L57.4,-21.15 L57.97,-21.15 L57.97,34.5 C57.97,34.65 58.02,34.78 58.13,34.89 C58.23,34.99 58.37,35.05 58.51,35.05 L68.52,35.05 C68.67,35.05 68.81,34.99 68.91,34.89 C69.01,34.78 69.07,34.65 69.07,34.5 L69.07,-35.5 C69.07,-35.8 68.82,-36.04 68.52,-36.04 L51.31,-36.04 C51.04,-36.04 50.81,-35.84 50.77,-35.57 L44.15,11.44 L43.8,11.44 L37.15,-35.57 C37.12,-35.84 36.89,-36.04 36.61,-36.04 L19.21,-36.04 ZM114.81,-36.04 C114.51,-36.04 114.27,-35.8 114.27,-35.5 L114.27,-26.1 C114.27,-25.79 114.51,-25.55 114.81,-25.55 L124.61,-25.55 C124.75,-25.55 124.89,-25.61 124.99,-25.71 C125.09,-25.81 125.15,-25.95 125.15,-26.1 L125.15,-35.5 C125.15,-35.8 124.91,-36.04 124.61,-36.04 L114.81,-36.04 ZM127.71,-36.04 C127.41,-36.04 127.17,-35.8 127.17,-35.5 L127.17,-26.9 C127.17,-26.76 127.22,-26.62 127.33,-26.52 C127.43,-26.41 127.57,-26.36 127.71,-26.36 L133.46,-26.36 L133.46,34.5 C133.46,34.65 133.52,34.78 133.62,34.89 C133.73,34.99 133.87,35.05 134.01,35.05 L144.02,35.05 C144.17,35.05 144.31,34.99 144.41,34.89 C144.51,34.78 144.57,34.65 144.57,34.5 L144.57,-35.5 C144.57,-35.8 144.32,-36.04 144.02,-36.04 L127.71,-36.04 ZM-144.74,-34.95 L-122.12,-34.95 L-122.12,-27.45 L-128.07,-27.45 C-128.37,-27.45 -128.62,-27.2 -128.62,-26.9 L-128.62,25.81 C-128.62,26.11 -128.37,26.35 -128.07,26.36 L-122.12,26.36 L-122.12,33.95 L-144.74,33.95 L-144.74,26.36 L-138.79,26.36 C-138.64,26.36 -138.5,26.3 -138.4,26.2 C-138.3,26.09 -138.24,25.95 -138.24,25.81 L-138.24,-26.9 C-138.24,-27.2 -138.49,-27.45 -138.79,-27.45 L-144.74,-27.45 L-144.74,-34.95 ZM19.75,-34.95 L36.14,-34.95 L42.79,12.07 C42.82,12.34 43.06,12.54 43.33,12.54 L44.62,12.54 C44.89,12.54 45.12,12.34 45.16,12.07 L51.79,-34.95 L67.98,-34.95 L67.98,33.95 L59.06,33.95 L59.06,-21.7 C59.06,-21.85 59,-21.99 58.9,-22.09 C58.8,-22.19 58.66,-22.25 58.51,-22.25 L56.93,-22.25 C56.65,-22.25 56.43,-22.05 56.39,-21.78 L49.74,24.55 L37.99,24.55 L31.47,-21.78 C31.43,-22.05 31.2,-22.25 30.93,-22.25 L29.31,-22.25 C29.17,-22.25 29.03,-22.19 28.93,-22.09 C28.83,-21.99 28.77,-21.85 28.77,-21.7 L28.77,33.95 L19.75,33.95 L19.75,-34.95 ZM115.36,-34.95 L124.06,-34.95 L124.06,-26.64 L115.36,-26.64 L115.36,-34.95 ZM128.26,-34.95 L143.47,-34.95 L143.47,33.95 L134.56,33.95 L134.56,-26.9 C134.56,-27.2 134.31,-27.45 134.01,-27.45 L128.26,-27.45 L128.26,-34.95 ZM-43.47,-29.25 C-43.62,-29.25 -43.76,-29.2 -43.86,-29.09 C-43.96,-28.99 -44.02,-28.85 -44.02,-28.71 L-44.02,-17.54 L-49.48,-17.54 C-49.63,-17.54 -49.76,-17.48 -49.87,-17.38 C-49.97,-17.27 -50.03,-17.13 -50.03,-16.99 L-50.03,-8.2 C-50.03,-7.9 -49.78,-7.65 -49.48,-7.65 L-44.02,-7.65 L-44.02,28.3 C-44.02,28.44 -43.96,28.58 -43.86,28.69 L-37.66,34.89 C-37.56,34.99 -37.42,35.05 -37.27,35.05 L-22.89,35.05 C-22.75,35.05 -22.61,34.99 -22.51,34.89 C-22.41,34.78 -22.35,34.65 -22.35,34.5 L-22.35,25.49 C-22.35,25.35 -22.41,25.21 -22.51,25.11 C-22.61,25 -22.75,24.95 -22.89,24.95 L-32.36,24.95 L-32.94,24.36 L-32.94,-7.65 L-23.38,-7.65 C-23.08,-7.65 -22.84,-7.9 -22.84,-8.2 L-22.84,-16.99 C-22.84,-17.13 -22.89,-17.27 -23,-17.38 C-23.1,-17.48 -23.24,-17.54 -23.38,-17.54 L-32.94,-17.54 L-32.94,-28.71 C-32.94,-28.85 -33,-28.99 -33.1,-29.09 C-33.21,-29.2 -33.35,-29.25 -33.49,-29.25 L-43.47,-29.25 ZM-42.93,-28.16 L-34.04,-28.16 L-34.04,-16.99 C-34.03,-16.69 -33.79,-16.44 -33.49,-16.44 L-23.93,-16.44 L-23.93,-8.75 L-33.49,-8.75 C-33.79,-8.75 -34.04,-8.5 -34.04,-8.2 L-34.04,24.59 C-34.04,24.73 -33.98,24.87 -33.88,24.97 L-32.97,25.88 C-32.87,25.98 -32.73,26.04 -32.59,26.04 L-23.44,26.04 L-23.44,33.95 L-37.05,33.95 L-42.93,28.07 L-42.93,-8.2 C-42.93,-8.34 -42.99,-8.48 -43.09,-8.59 C-43.19,-8.69 -43.33,-8.75 -43.47,-8.75 L-48.93,-8.75 L-48.93,-16.44 L-43.47,-16.44 C-43.17,-16.44 -42.93,-16.69 -42.93,-16.99 L-42.93,-28.16 ZM-114.28,-17.54 C-114.58,-17.53 -114.83,-17.29 -114.83,-16.99 L-114.83,34.5 C-114.83,34.8 -114.58,35.05 -114.28,35.05 L-104.27,35.05 C-104.13,35.05 -103.99,34.99 -103.89,34.89 C-103.78,34.78 -103.73,34.65 -103.73,34.5 L-103.73,-5.85 L-101.58,-7.65 L-97.01,-7.65 L-95.64,-6.27 L-95.64,34.5 C-95.64,34.8 -95.4,35.05 -95.09,35.05 L-85.08,35.05 C-84.94,35.05 -84.8,34.99 -84.7,34.89 C-84.59,34.78 -84.54,34.65 -84.54,34.5 L-84.54,-10.2 C-84.54,-10.35 -84.6,-10.49 -84.7,-10.59 L-91.48,-17.38 C-91.59,-17.48 -91.73,-17.54 -91.87,-17.54 L-102.78,-17.54 C-102.92,-17.54 -103.05,-17.49 -103.15,-17.4 L-105.99,-14.85 L-106.44,-14.85 L-106.44,-16.99 C-106.44,-17.13 -106.49,-17.27 -106.6,-17.38 C-106.7,-17.48 -106.84,-17.54 -106.98,-17.54 L-114.28,-17.54 ZM-72.08,-17.54 C-72.23,-17.54 -72.37,-17.48 -72.47,-17.38 L-79.06,-10.78 C-79.16,-10.68 -79.22,-10.54 -79.22,-10.4 L-79.22,5.79 C-79.22,5.93 -79.16,6.07 -79.06,6.17 L-72.27,12.99 C-72.17,13.09 -72.03,13.15 -71.89,13.15 L-65.5,13.15 L-64.04,14.63 L-64.04,23.97 L-65.3,25.26 L-78.19,25.26 C-78.33,25.26 -78.47,25.32 -78.57,25.42 C-78.67,25.52 -78.73,25.66 -78.73,25.81 L-78.73,34.5 C-78.73,34.65 -78.67,34.78 -78.57,34.89 C-78.47,34.99 -78.33,35.05 -78.19,35.05 L-60.07,35.05 C-59.93,35.05 -59.79,34.99 -59.68,34.89 L-53.09,28.29 C-52.99,28.19 -52.93,28.05 -52.93,27.91 L-52.93,10.7 C-52.93,10.55 -52.99,10.41 -53.09,10.31 L-59.9,3.52 C-60.01,3.42 -60.15,3.36 -60.29,3.36 L-66.66,3.36 L-68.14,1.88 L-68.14,-6.48 L-66.85,-7.75 L-54.58,-7.75 C-54.28,-7.75 -54.03,-8 -54.03,-8.3 L-54.03,-16.99 C-54.03,-17.13 -54.09,-17.27 -54.19,-17.38 C-54.29,-17.48 -54.43,-17.54 -54.58,-17.54 L-72.08,-17.54 ZM-15.79,-17.54 C-16.09,-17.53 -16.34,-17.29 -16.34,-16.99 L-16.34,-8.39 C-16.34,-8.09 -16.09,-7.85 -15.79,-7.85 L-2.62,-7.85 L-1.13,-6.36 L-1.13,-1.06 L-12.28,-1.06 C-12.42,-1.06 -12.56,-1 -12.66,-0.9 L-19.67,6.11 C-19.77,6.21 -19.83,6.35 -19.83,6.5 L-19.83,27.91 C-19.83,28.05 -19.77,28.19 -19.67,28.29 L-13.08,34.89 C-12.98,34.99 -12.84,35.05 -12.69,35.05 L-2.58,35.05 C-2.45,35.05 -2.33,35 -2.23,34.91 L1.23,31.95 L1.58,31.95 L1.58,34.5 C1.58,34.8 1.83,35.05 2.13,35.05 L9.43,35.05 C9.57,35.05 9.71,34.99 9.81,34.89 C9.92,34.78 9.97,34.65 9.97,34.5 L9.97,-10.3 C9.97,-10.45 9.92,-10.59 9.81,-10.69 L3.1,-17.38 C3,-17.48 2.86,-17.54 2.71,-17.54 L-15.79,-17.54 ZM81.21,-17.54 C80.91,-17.53 80.66,-17.29 80.66,-16.99 L80.66,-8.39 C80.66,-8.09 80.91,-7.85 81.21,-7.85 L94.38,-7.85 L95.87,-6.36 L95.87,-1.06 L84.72,-1.06 C84.58,-1.06 84.44,-1 84.34,-0.9 L77.33,6.11 C77.23,6.21 77.17,6.35 77.17,6.5 L77.17,27.91 C77.17,28.05 77.23,28.19 77.33,28.29 L83.92,34.89 C84.02,34.99 84.16,35.05 84.31,35.05 L94.42,35.05 C94.55,35.05 94.67,35 94.77,34.91 L98.23,31.95 L98.58,31.95 L98.58,34.5 C98.58,34.8 98.83,35.05 99.13,35.05 L106.43,35.05 C106.57,35.05 106.71,34.99 106.81,34.89 C106.92,34.78 106.97,34.65 106.97,34.5 L106.97,-10.3 C106.97,-10.45 106.92,-10.59 106.81,-10.69 L100.1,-17.38 C100,-17.48 99.86,-17.54 99.71,-17.54 L81.21,-17.54 ZM114.72,-17.54 C114.42,-17.53 114.17,-17.29 114.17,-16.99 L114.17,34.5 C114.17,34.8 114.42,35.05 114.72,35.05 L124.73,35.05 C124.87,35.05 125.01,34.99 125.11,34.89 C125.22,34.78 125.27,34.65 125.27,34.5 L125.27,-16.99 C125.27,-17.13 125.22,-17.27 125.11,-17.38 C125.01,-17.48 124.87,-17.54 124.73,-17.54 L114.72,-17.54 ZM-113.74,-16.44 L-107.53,-16.44 L-107.53,-14.3 C-107.53,-14.16 -107.47,-14.02 -107.37,-13.92 C-107.27,-13.82 -107.13,-13.76 -106.98,-13.76 L-105.79,-13.76 C-105.65,-13.76 -105.52,-13.81 -105.42,-13.9 L-102.57,-16.44 L-92.1,-16.44 L-85.63,-9.98 L-85.63,33.95 L-94.55,33.95 L-94.55,-6.49 C-94.55,-6.64 -94.6,-6.77 -94.7,-6.88 L-96.39,-8.58 C-96.49,-8.69 -96.63,-8.75 -96.78,-8.75 L-101.78,-8.75 C-101.91,-8.75 -102.04,-8.7 -102.13,-8.62 L-104.63,-6.52 C-104.75,-6.41 -104.82,-6.26 -104.82,-6.1 L-104.82,33.95 L-113.74,33.95 L-113.74,-16.44 ZM-71.86,-16.44 L-55.12,-16.44 L-55.12,-8.84 L-67.08,-8.84 C-67.22,-8.84 -67.36,-8.79 -67.46,-8.69 L-69.07,-7.1 C-69.18,-7 -69.23,-6.86 -69.23,-6.71 L-69.23,2.1 C-69.23,2.25 -69.18,2.39 -69.07,2.49 L-67.27,4.29 C-67.17,4.4 -67.03,4.45 -66.88,4.46 L-60.52,4.46 L-54.03,10.92 L-54.03,27.68 L-60.3,33.95 L-77.64,33.95 L-77.64,26.36 L-65.08,26.36 C-64.93,26.36 -64.79,26.3 -64.69,26.19 L-63.1,24.58 C-63,24.48 -62.94,24.34 -62.94,24.2 L-62.94,14.41 C-62.94,14.26 -63,14.13 -63.1,14.02 L-64.88,12.22 C-64.98,12.11 -65.12,12.05 -65.27,12.05 L-71.66,12.05 L-78.13,5.56 L-78.13,-10.17 L-71.86,-16.44 ZM-15.25,-16.44 L2.49,-16.44 L8.88,-10.07 L8.88,33.95 L2.67,33.95 L2.67,31.4 C2.67,31.1 2.43,30.85 2.13,30.85 L1.03,30.85 C0.9,30.85 0.77,30.9 0.67,30.98 L-2.79,33.95 L-12.46,33.95 L-18.74,27.68 L-18.74,6.72 L-12.05,0.04 L-0.58,0.04 C-0.44,0.04 -0.3,-0.02 -0.2,-0.12 C-0.09,-0.23 -0.04,-0.36 -0.04,-0.51 L-0.04,-6.59 C-0.04,-6.73 -0.09,-6.87 -0.2,-6.97 L-2,-8.78 C-2.1,-8.88 -2.24,-8.94 -2.39,-8.94 L-15.25,-8.94 L-15.25,-16.44 ZM81.75,-16.44 L99.49,-16.44 L105.88,-10.07 L105.88,33.95 L99.67,33.95 L99.67,31.4 C99.67,31.1 99.43,30.85 99.13,30.85 L98.03,30.85 C97.9,30.85 97.77,30.9 97.67,30.98 L94.21,33.95 L84.54,33.95 L78.26,27.68 L78.26,6.72 L84.95,0.04 L96.42,0.04 C96.56,0.04 96.7,-0.02 96.8,-0.12 C96.91,-0.23 96.96,-0.36 96.96,-0.51 L96.96,-6.59 C96.96,-6.73 96.91,-6.87 96.8,-6.97 L95,-8.78 C94.9,-8.88 94.76,-8.94 94.61,-8.94 L81.75,-8.94 L81.75,-16.44 ZM115.26,-16.44 L124.18,-16.44 L124.18,33.95 L115.26,33.95 L115.26,-16.44 ZM-7.39,7.15 C-7.54,7.15 -7.68,7.2 -7.78,7.31 L-9.66,9.21 C-9.76,9.32 -9.82,9.45 -9.82,9.6 L-9.82,24.39 C-9.82,24.54 -9.76,24.67 -9.66,24.78 L-8.17,26.29 C-8.07,26.39 -7.93,26.45 -7.79,26.45 L-2.97,26.45 C-2.84,26.45 -2.71,26.4 -2.62,26.32 L-0.22,24.22 C-0.1,24.11 -0.04,23.96 -0.04,23.81 L-0.04,7.69 C-0.04,7.55 -0.09,7.41 -0.2,7.31 C-0.3,7.2 -0.44,7.15 -0.58,7.15 L-7.39,7.15 ZM89.61,7.15 C89.46,7.15 89.32,7.2 89.22,7.31 L87.34,9.21 C87.24,9.32 87.18,9.45 87.18,9.6 L87.18,24.39 C87.18,24.54 87.24,24.67 87.34,24.78 L88.83,26.29 C88.93,26.39 89.07,26.45 89.21,26.45 L94.03,26.45 C94.16,26.45 94.29,26.4 94.38,26.32 L96.78,24.22 C96.9,24.11 96.96,23.96 96.96,23.81 L96.96,7.69 C96.96,7.55 96.91,7.41 96.8,7.31 C96.7,7.2 96.56,7.15 96.42,7.15 L89.61,7.15 ZM-7.17,8.24 L-1.13,8.24 L-1.13,23.56 L-3.18,25.36 L-7.56,25.36 L-8.73,24.17 L-8.73,9.82 L-7.17,8.24 ZM89.83,8.24 L95.87,8.24 L95.87,23.56 L93.82,25.36 L89.44,25.36 L88.27,24.17 L88.27,9.82 L89.83,8.24 Z" fill="#000000" fill-rule="evenodd" />
	</g>
</svg>